HIERARCHY
ROOT Root
{
  OFFSET 0.0 0.0 0.0
  CHANNELS 6 Xposition Yposition Zposition Zrotation Yrotation Xrotation
  JOINT Hips
  {
    OFFSET 0.0 100.0 0.0
    CHANNELS 6 Xposition Yposition Zposition Zrotation Yrotation Xrotation
    JOINT Spine1
    {
      OFFSET -0.013727 5.003763 -0.053727
      CHANNELS 3 Zrotation Yrotation Xrotation
      JOINT Spine2
      {
        OFFSET -0.0 7.125301 -0.029825
        CHANNELS 3 Zrotation Yrotation Xrotation
        JOINT Chest
        {
          OFFSET -1e-06 7.550063 -0.815971
          CHANNELS 3 Zrotation Yrotation Xrotation
          JOINT Neck1
          {
            OFFSET -0.181677 26.311295 -0.553348
            CHANNELS 3 Zrotation Yrotation Xrotation
            JOINT Neck2
            {
              OFFSET -3e-06 7.709397 2.302585
              CHANNELS 3 Zrotation Yrotation Xrotation
              JOINT Head
              {
                OFFSET -5e-06 6.128916 1.953709
                CHANNELS 3 Zrotation Yrotation Xrotation
                JOINT HeadEnd
                {
                  OFFSET 0.003598 16.065403 -1.835379
                  CHANNELS 3 Zrotation Yrotation Xrotation
                }
                JOINT Jaw
                {
                  OFFSET 0.002637 0.475592 3.094941
                  CHANNELS 3 Zrotation Yrotation Xrotation
                }
                JOINT LeftEye
                {
                  OFFSET 3.206381 5.380205 7.586883
                  CHANNELS 3 Zrotation Yrotation Xrotation
                }
                JOINT RightEye
                {
                  OFFSET -3.22244 5.361869 7.558234
                  CHANNELS 3 Zrotation Yrotation Xrotation
                }
              }
            }
          }
          JOINT LeftShoulder
          {
            OFFSET 1.621652 23.237164 5.113413
            CHANNELS 3 Zrotation Yrotation Xrotation
            JOINT LeftArm
            {
              OFFSET 14.919846 2e-06 -5.502326
              CHANNELS 3 Zrotation Yrotation Xrotation
              JOINT LeftForeArm
              {
                OFFSET 28.739307 0.0 -0.002588
                CHANNELS 3 Zrotation Yrotation Xrotation
                JOINT LeftHand
                {
                  OFFSET 27.093981 -1e-06 0.002609
                  CHANNELS 3 Zrotation Yrotation Xrotation
                  JOINT LeftHandThumb1
                  {
                    OFFSET 2.276482 -1.392045 3.191413
                    CHANNELS 3 Zrotation Yrotation Xrotation
                    JOINT LeftHandThumb2
                    {
                      OFFSET 4.012836 -1.828127 1.641654
                      CHANNELS 3 Zrotation Yrotation Xrotation
                      JOINT LeftHandThumb3
                      {
                        OFFSET 2.798515 0.0 -3e-06
                        CHANNELS 3 Zrotation Yrotation Xrotation
                        JOINT LeftHandThumbEnd
                        {
                          OFFSET 3.180793 -4e-06 4e-06
                          CHANNELS 3 Zrotation Yrotation Xrotation
                        }
                      }
                    }
                  }
                  JOINT LeftHandIndex1
                  {
                    OFFSET 3.247555 -0.531998 2.296169
                    CHANNELS 3 Zrotation Yrotation Xrotation
                    JOINT LeftHandIndex2
                    {
                      OFFSET 6.364578 0.01206 0.1786
                      CHANNELS 3 Zrotation Yrotation Xrotation
                      JOINT LeftHandIndex3
                      {
                        OFFSET 3.662364 0.0 0.0
                        CHANNELS 3 Zrotation Yrotation Xrotation
                        JOINT LeftHandIndex4
                        {
                          OFFSET 2.329242 4e-06 4e-06
                          CHANNELS 3 Zrotation Yrotation Xrotation
                          JOINT LeftHandIndexEnd
                          {
                            OFFSET 2.759615 -0.180537 -0.113024
                            CHANNELS 3 Zrotation Yrotation Xrotation
                          }
                        }
                      }
                    }
                  }
                  JOINT LeftHandMiddle1
                  {
                    OFFSET 3.163495 0.240981 1.000332
                    CHANNELS 3 Zrotation Yrotation Xrotation
                    JOINT LeftHandMiddle2
                    {
                      OFFSET 6.19078 -0.259278 -1.002548
                      CHANNELS 3 Zrotation Yrotation Xrotation
                      JOINT LeftHandMiddle3
                      {
                        OFFSET 4.35652 -4e-06 -1e-06
                        CHANNELS 3 Zrotation Yrotation Xrotation
                        JOINT LeftHandMiddle4
                        {
                          OFFSET 2.996877 -8e-06 0.0
                          CHANNELS 3 Zrotation Yrotation Xrotation
                          JOINT LeftHandMiddleEnd
                          {
                            OFFSET 2.304287 -0.294569 -0.031741
                            CHANNELS 3 Zrotation Yrotation Xrotation
                          }
                        }
                      }
                    }
                  }
                  JOINT LeftHandRing1
                  {
                    OFFSET 2.882643 -0.053652 -0.322543
                    CHANNELS 3 Zrotation Yrotation Xrotation
                    JOINT LeftHandRing2
                    {
                      OFFSET 5.854541 -0.486202 -1.373841
                      CHANNELS 3 Zrotation Yrotation Xrotation
                      JOINT LeftHandRing3
                      {
                        OFFSET 4.350578 0.0 3e-06
                        CHANNELS 3 Zrotation Yrotation Xrotation
                        JOINT LeftHandRing4
                        {
                          OFFSET 2.651321 7e-06 2e-06
                          CHANNELS 3 Zrotation Yrotation Xrotation
                          JOINT LeftHandRingEnd
                          {
                            OFFSET 1.936105 0.077687 -7.1e-05
                            CHANNELS 3 Zrotation Yrotation Xrotation
                          }
                        }
                      }
                    }
                  }
                  JOINT LeftHandPinky1
                  {
                    OFFSET 2.8655 -0.310005 -1.600378
                    CHANNELS 3 Zrotation Yrotation Xrotation
                    JOINT LeftHandPinky2
                    {
                      OFFSET 5.087849 -1.331141 -1.77123
                      CHANNELS 3 Zrotation Yrotation Xrotation
                      JOINT LeftHandPinky3
                      {
                        OFFSET 3.070974 4e-06 0.0
                        CHANNELS 3 Zrotation Yrotation Xrotation
                        JOINT LeftHandPinky4
                        {
                          OFFSET 1.549672 0.0 1e-06
                          CHANNELS 3 Zrotation Yrotation Xrotation
                          JOINT LeftHandPinkyEnd
                          {
                            OFFSET 1.944893 -0.157802 0.057219
                            CHANNELS 3 Zrotation Yrotation Xrotation
                          }
                        }
                      }
                    }
                  }
                }
              }
            }
          }
          JOINT RightShoulder
          {
            OFFSET -1.380118 23.180309 5.214158
            CHANNELS 3 Zrotation Yrotation Xrotation
            JOINT RightArm
            {
              OFFSET -15.037196 1.2e-05 -5.545604
              CHANNELS 3 Zrotation Yrotation Xrotation
              JOINT RightForeArm
              {
                OFFSET -28.736639 2e-06 -0.002597
                CHANNELS 3 Zrotation Yrotation Xrotation
                JOINT RightHand
                {
                  OFFSET -27.133619 -0.0 0.002613
                  CHANNELS 3 Zrotation Yrotation Xrotation
                  JOINT RightHandThumb1
                  {
                    OFFSET -2.274032 -1.383988 3.163127
                    CHANNELS 3 Zrotation Yrotation Xrotation
                    JOINT RightHandThumb2
                    {
                      OFFSET -4.011429 -1.827466 1.640914
                      CHANNELS 3 Zrotation Yrotation Xrotation
                      JOINT RightHandThumb3
                      {
                        OFFSET -2.794935 -4e-06 -3e-06
                        CHANNELS 3 Zrotation Yrotation Xrotation
                        JOINT RightHandThumbEnd
                        {
                          OFFSET -3.183852 4e-06 1e-06
                          CHANNELS 3 Zrotation Yrotation Xrotation
                        }
                      }
                    }
                  }
                  JOINT RightHandIndex1
                  {
                    OFFSET -3.253266 -0.520057 2.282866
                    CHANNELS 3 Zrotation Yrotation Xrotation
                    JOINT RightHandIndex2
                    {
                      OFFSET -6.341917 0.012471 0.178266
                      CHANNELS 3 Zrotation Yrotation Xrotation
                      JOINT RightHandIndex3
                      {
                        OFFSET -3.654871 -8e-06 -0.0
                        CHANNELS 3 Zrotation Yrotation Xrotation
                        JOINT RightHandIndex4
                        {
                          OFFSET -2.327586 0.0 1e-06
                          CHANNELS 3 Zrotation Yrotation Xrotation
                          JOINT RightHandIndexEnd
                          {
                            OFFSET -2.76179 -0.180656 -0.113078
                            CHANNELS 3 Zrotation Yrotation Xrotation
                          }
                        }
                      }
                    }
                  }
                  JOINT RightHandMiddle1
                  {
                    OFFSET -3.168106 0.246593 1.00103
                    CHANNELS 3 Zrotation Yrotation Xrotation
                    JOINT RightHandMiddle2
                    {
                      OFFSET -6.180828 -0.258836 -1.000895
                      CHANNELS 3 Zrotation Yrotation Xrotation
                      JOINT RightHandMiddle3
                      {
                        OFFSET -4.348901 0.0 -0.0
                        CHANNELS 3 Zrotation Yrotation Xrotation
                        JOINT RightHandMiddle4
                        {
                          OFFSET -3.00024 -4e-06 -2e-06
                          CHANNELS 3 Zrotation Yrotation Xrotation
                          JOINT RightHandMiddleEnd
                          {
                            OFFSET -2.30252 -0.29437 -0.031706
                            CHANNELS 3 Zrotation Yrotation Xrotation
                          }
                        }
                      }
                    }
                  }
                  JOINT RightHandRing1
                  {
                    OFFSET -2.88569 -0.067952 -0.308858
                    CHANNELS 3 Zrotation Yrotation Xrotation
                    JOINT RightHandRing2
                    {
                      OFFSET -5.854198 -0.48613 -1.373731
                      CHANNELS 3 Zrotation Yrotation Xrotation
                      JOINT RightHandRing3
                      {
                        OFFSET -4.33881 -4e-06 -0.0
                        CHANNELS 3 Zrotation Yrotation Xrotation
                        JOINT RightHandRing4
                        {
                          OFFSET -2.654903 -4e-06 4e-06
                          CHANNELS 3 Zrotation Yrotation Xrotation
                          JOINT RightHandRingEnd
                          {
                            OFFSET -1.933568 0.077527 -5.2e-05
                            CHANNELS 3 Zrotation Yrotation Xrotation
                          }
                        }
                      }
                    }
                  }
                  JOINT RightHandPinky1
                  {
                    OFFSET -2.866425 -0.342796 -1.584145
                    CHANNELS 3 Zrotation Yrotation Xrotation
                    JOINT RightHandPinky2
                    {
                      OFFSET -5.091371 -1.332055 -1.772385
                      CHANNELS 3 Zrotation Yrotation Xrotation
                      JOINT RightHandPinky3
                      {
                        OFFSET -3.062664 -4e-06 1e-06
                        CHANNELS 3 Zrotation Yrotation Xrotation
                        JOINT RightHandPinky4
                        {
                          OFFSET -1.546529 4e-06 -2e-06
                          CHANNELS 3 Zrotation Yrotation Xrotation
                          JOINT RightHandPinkyEnd
                          {
                            OFFSET -1.945119 -0.157718 0.057211
                            CHANNELS 3 Zrotation Yrotation Xrotation
                          }
                        }
                      }
                    }
                  }
                }
              }
            }
          }
        }
      }
    }
    JOINT LeftLeg
    {
      OFFSET 10.043214 -8.434526 2.595655
      CHANNELS 3 Zrotation Yrotation Xrotation
      JOINT LeftShin
      {
        OFFSET -1e-06 -43.221752 -0.802913
        CHANNELS 3 Zrotation Yrotation Xrotation
        JOINT LeftFoot
        {
          OFFSET 1e-06 -42.155094 -3.481523
          CHANNELS 3 Zrotation Yrotation Xrotation
          JOINT LeftToeBase
          {
            OFFSET 0.0 -5.059472 13.231529
            CHANNELS 3 Zrotation Yrotation Xrotation
            JOINT LeftToeEnd
            {
              OFFSET -0.009607 -1.647619 6.513017
              CHANNELS 3 Zrotation Yrotation Xrotation
            }
          }
        }
      }
    }
    JOINT RightLeg
    {
      OFFSET -10.047278 -8.29526 2.620317
      CHANNELS 3 Zrotation Yrotation Xrotation
      JOINT RightShin
      {
        OFFSET 1e-06 -43.362206 -0.805556
        CHANNELS 3 Zrotation Yrotation Xrotation
        JOINT RightFoot
        {
          OFFSET 2e-06 -42.117393 -3.478398
          CHANNELS 3 Zrotation Yrotation Xrotation
          JOINT RightToeBase
          {
            OFFSET -0.0 -5.079609 13.284196
            CHANNELS 3 Zrotation Yrotation Xrotation
            JOINT RightToeEnd
            {
              OFFSET 0.009532 -1.634378 6.460591
              CHANNELS 3 Zrotation Yrotation Xrotation
            }
          }
        }
      }
    }
  }
}
MOTION
Frames: 4
Frame Time: 0.03333333333333333
0.0 0.0 0.0 0.0 -0.0 0.0 0.522522 99.80513 229.987976 -0.510567 0.496426 1.67736 -0.16426 -0.352181 -2.51279 -0.536707 -0.763289 -5.653789 0.856193 -2.788378 9.160722 0.424929 2.566104 0.364632 -0.400981 1.499749 -3.529523 -0.934861 1.895606 -7.310768 7.7e-05 -2.3e-05 6e-06 0.002016 -0.071614 0.023464 0.724352 -3.796801 -10.590273 -0.724561 3.662581 -10.577596 -18.967884 -6.049213 12.867774 -48.652763 -17.163973 27.446199 -1.01545 -25.771664 0.357025 7.147074 -1.150821 -14.06276 -5.882113 9.861292 0.702591 -10.93688 -0.360573 7.156208 -0.0 8.774831 -0.0 -15.397096 18.273083 6.39808 -1.844033 2.498506 -2.507279 -10.163605 4.678949 4.62111 -20.976038 -1e-06 0.0 -21.226301 2.451699 -3.594004 2e-06 -6e-06 1e-06 -1.362683 2.240798 -0.746324 -21.334932 0.584911 3.008322 -13.821225 -1e-06 0.0 -23.887188 -0.249079 -0.839487 -60.076946 2.634237 -1.269856 -0.294024 1.679687 0.833257 -14.218219 0.093217 1.300581 -34.212074 -0.287563 0.967164 -20.03323 0.964539 1.212841 0.0 -1e-06 -0.0 -3.44039 0.788234 0.501656 -15.9282 -3.16731 2.999708 -6.338831 -0.0 -0.0 -18.123463 3.648185 -4.905674 -4e-06 1e-06 -1e-06 18.958469 8.153069 11.723137 53.934971 1.113493 12.073362 -0.607704 31.899794 -0.364741 -8.578502 2.036398 -13.246346 2.243543 -5.255037 -3.180157 14.282896 -0.826594 6.952502 -2e-06 -12.690607 -1e-06 16.082247 -17.651184 2.632678 1.665667 -1.955923 -2.878299 4.7278 -4.170588 4.993923 11.020529 3e-06 -2e-06 12.109058 -3.735717 -2.866783 -0.0 1e-06 0.0 1.291987 -1.928549 -1.498089 14.800132 0.567469 3.865606 14.242577 -1.341738 -6.660659 19.631973 0.143925 -0.648246 49.72683 -0.547247 -6.101853 0.353029 -1.511152 -0.03194 20.222801 3.684312 2.316629 18.787283 7e-06 -2e-06 10.751631 -0.479868 1.397903 0.0 1e-06 0.0 3.273808 0.305947 -0.580111 21.486818 11.830378 2.266131 8.162929 1e-06 -2e-06 18.399088 -3.798986 -4.940578 4e-06 0.0 -1e-06 10.996111 5.364938 -4.200566 -0.019706 -0.187243 5.37297 -12.177751 5.177201 -0.365028 1.615025 -2.033326 1.831103 -0.0 0.0 2e-06 -7.592277 -9.553195 -2.900703 -0.027269 -0.000882 5.475474 10.139083 -5.779836 -2.696698 -1.421244 1.018738 2.469193 -0.0 -0.0 -1e-06 
0.0 0.0 0.0 0.0 -0.0 0.0 0.593554 99.707146 230.526917 -0.530531 0.425552 1.538338 -0.188291 -0.356828 -2.639162 -0.550396 -0.791558 -5.683109 0.758503 -2.854517 9.254183 0.476489 2.577884 0.853499 -0.433544 1.460379 -3.523769 -0.999697 1.760664 -7.022402 7.7e-05 -2.2e-05 7e-06 0.008277 -0.049277 0.022489 0.727943 -3.770663 -10.567388 -0.715318 3.680706 -10.564251 -18.669949 -6.130544 12.836218 -49.91888 -17.126932 27.882069 -1.109 -23.55094 0.381028 6.563443 -0.478201 -13.819492 -5.882109 9.861292 0.702591 -10.936879 -0.360575 7.15621 1e-06 8.774831 0.0 -15.438481 18.19409 6.335738 -1.844034 2.498506 -2.507279 -10.163604 4.678947 4.62111 -20.976038 -5e-06 3e-06 -21.226299 2.451698 -3.593999 2e-06 -6e-06 -1e-06 -1.362682 2.240799 -0.746323 -21.334929 0.584907 3.008324 -13.821221 -4e-06 2e-06 -23.887184 -0.24908 -0.83948 -60.009026 2.602426 -1.211214 -0.294025 1.679688 0.833257 -14.218219 0.093213 1.300582 -34.212074 -0.287567 0.967172 -20.03323 0.964534 1.212844 1e-06 -0.0 0.0 -3.44039 0.788235 0.501654 -15.928198 -3.167313 2.999709 -6.33883 -2e-06 1e-06 -18.123459 3.648183 -4.905671 -5e-06 1e-06 -1e-06 18.973255 7.982209 11.78108 54.778305 1.258628 12.827291 -0.427135 31.088078 -0.193788 -8.180708 1.640604 -12.843112 2.243543 -5.255039 -3.180159 14.282902 -0.826596 6.952507 -2e-06 -12.690614 3e-06 16.108318 -17.663252 2.564736 1.665667 -1.955922 -2.878301 4.727803 -4.170591 4.993927 11.020536 1e-06 -2e-06 12.109062 -3.735718 -2.866785 0.0 1e-06 0.0 1.291986 -1.928552 -1.498091 14.800142 0.567467 3.865611 14.242584 -1.341738 -6.660662 19.631987 0.143926 -0.648246 49.802753 -0.559165 -6.159547 0.35303 -1.511152 -0.03194 20.222807 3.684311 2.31663 18.787289 3e-06 -1e-06 10.751637 -0.479869 1.397908 1e-06 1e-06 -0.0 3.27381 0.305947 -0.580112 21.486832 11.830381 2.266134 8.162935 2e-06 -1e-06 18.399099 -3.798988 -4.940579 3e-06 1e-06 -2e-06 11.015202 5.059011 -3.690441 -0.032035 -0.175063 5.363317 -12.163574 5.303576 -1.118978 1.604967 -2.014585 1.876617 -0.0 0.0 2e-06 -7.708447 -9.397439 -2.189239 0.002851 0.046294 5.092436 10.377337 -5.782356 -3.15354 -1.411704 1.010569 2.504049 -0.0 0.0 -1e-06 
0.0 0.0 0.0 0.0 -0.0 0.0 0.653861 99.658623 231.029175 -0.525146 0.266277 1.453257 -0.218594 -0.358865 -2.6875 -0.549386 -0.766884 -5.690642 0.765311 -2.792236 9.129178 0.450082 2.497258 1.197447 -0.418696 1.447766 -3.523944 -1.10115 1.582821 -6.89602 7.7e-05 -2.3e-05 6e-06 0.015715 -0.009407 0.017239 0.735841 -3.731168 -10.556673 -0.708173 3.720598 -10.563087 -18.12574 -6.057248 12.885895 -51.220913 -16.589622 28.151789 -1.124513 -22.99637 0.377725 5.812726 -0.067223 -13.662168 -5.882108 9.861286 0.70259 -10.936875 -0.360575 7.156206 1e-06 8.774826 -0.0 -15.496763 18.15707 6.268013 -1.844032 2.498504 -2.507279 -10.163603 4.678944 4.621108 -20.976028 -2e-06 -0.0 -21.226292 2.451697 -3.594002 3e-06 -6e-06 -0.0 -1.362683 2.240799 -0.746324 -21.334921 0.584911 3.008322 -13.821218 -2e-06 0.0 -23.88718 -0.249079 -0.839484 -59.993938 2.658987 -1.29678 -0.294026 1.679687 0.833256 -14.218214 0.093215 1.300581 -34.212063 -0.287565 0.967167 -20.033224 0.964536 1.212842 0.0 -1e-06 -0.0 -3.440391 0.788234 0.501657 -15.928192 -3.16731 2.999706 -6.338829 -2e-06 -1e-06 -18.123457 3.648181 -4.905674 -5e-06 1e-06 0.0 18.660152 7.968773 11.803418 55.922165 1.108448 12.662429 -0.258715 30.234764 -0.08482 -7.786454 1.276115 -12.734015 2.243544 -5.255039 -3.180159 14.282899 -0.826595 6.952505 -2e-06 -12.690611 2e-06 16.149168 -17.661114 2.508423 1.665668 -1.955922 -2.8783 4.727801 -4.17059 4.993925 11.020531 2e-06 -3e-06 12.109058 -3.735717 -2.866787 0.0 1e-06 0.0 1.291986 -1.92855 -1.49809 14.800136 0.567468 3.865606 14.242582 -1.341735 -6.660663 19.631981 0.143927 -0.648248 49.800472 -0.584372 -6.287612 0.353029 -1.51115 -0.03194 20.222803 3.684312 2.316628 18.787287 6e-06 -4e-06 10.751634 -0.479867 1.397906 1e-06 1e-06 0.0 3.273808 0.305948 -0.580111 21.486824 11.830381 2.26613 8.16293 2e-06 -2e-06 18.399092 -3.798986 -4.940581 4e-06 -1e-06 -0.0 11.014443 4.663086 -3.24489 -0.073956 -0.166756 5.362569 -12.061159 5.548928 -1.637776 1.60454 -2.005316 1.970537 -0.0 0.0 2e-06 -7.83664 -9.303794 -1.769624 0.019848 0.075911 4.9927 10.673855 -5.651891 -3.413928 -1.407504 0.966839 2.532075 0.0 -0.0 -1e-06 
0.0 0.0 0.0 0.0 -0.0 0.0 0.726626 99.623749 231.515411 -0.487607 0.084218 1.356816 -0.251926 -0.349293 -2.729416 -0.5511 -0.712813 -5.697053 0.823628 -2.645673 9.122651 0.43975 2.430454 1.194196 -0.436957 1.380073 -3.552018 -1.156837 1.46086 -6.877594 7.7e-05 -2.2e-05 6e-06 0.019633 0.009045 0.006903 0.739849 -3.71589 -10.569601 -0.704482 3.740928 -10.569447 -18.022707 -5.785183 12.935222 -51.70908 -15.530171 28.390297 -0.928281 -24.156168 0.309895 5.36084 -0.330864 -14.091643 -5.882109 9.861289 0.702591 -10.936873 -0.360574 7.156208 -1e-06 8.774828 -0.0 -15.552858 18.170122 6.247103 -1.844032 2.498505 -2.507277 -10.163602 4.678946 4.62111 -20.976028 -1e-06 2e-06 -21.22629 2.451701 -3.594002 1e-06 -6e-06 -1e-06 -1.362682 2.240799 -0.746323 -21.334921 0.584911 3.008326 -13.821217 -1e-06 1e-06 -23.887175 -0.249075 -0.839484 -60.120705 2.69777 -1.408842 -0.294025 1.679688 0.833256 -14.218211 0.093215 1.300581 -34.212059 -0.287558 0.967172 -20.033216 0.964538 1.212843 0.0 -1e-06 -0.0 -3.44039 0.788234 0.501656 -15.928191 -3.167308 2.999707 -6.338828 -1e-06 2e-06 -18.123451 3.648184 -4.905671 -4e-06 1e-06 0.0 18.704025 8.011495 11.868229 56.491261 0.659744 12.218704 -0.26168 29.953842 -0.074154 -7.544059 1.099963 -12.922408 2.243542 -5.255037 -3.180159 14.282898 -0.826597 6.952506 -3e-06 -12.690609 0.0 16.20229 -17.676605 2.541348 1.665666 -1.955921 -2.8783 4.7278 -4.170588 4.993926 11.02053 3e-06 -1e-06 12.109056 -3.735716 -2.866785 0.0 1e-06 -0.0 1.291985 -1.928549 -1.498089 14.800136 0.567469 3.86561 14.242579 -1.341736 -6.660661 19.631975 0.143925 -0.648246 49.876076 -0.572037 -6.345481 0.353028 -1.51115 -0.03194 20.222803 3.68431 2.31663 18.787283 6e-06 0.0 10.751633 -0.479869 1.397907 1e-06 1e-06 1e-06 3.273808 0.305947 -0.580111 21.486824 11.83038 2.266134 8.162931 1e-06 0.0 18.39909 -3.798985 -4.940577 4e-06 0.0 -1e-06 10.963288 4.42326 -2.808818 -0.101635 -0.174089 5.388244 -12.027032 5.730575 -2.050994 1.615201 -1.998059 2.043623 -0.0 0.0 2e-06 -8.012211 -9.298735 -1.399945 0.016619 0.069178 4.956185 11.065918 -5.307886 -3.589995 -1.411086 0.94291 2.509046 -0.0 0.0 -1e-06 
